
        <svg xmlns="http://www.w3.org/2000/svg" xmlns:xlink="http://www.w3.org/1999/xlink" version="1.1" width="3171.4285714285716" 
        height="2881.010578814546" viewBox="0 0 3171.4285714285716 2881.010578814546">
			<rect fill="#7fd68a" width="3171.4285714285716" height="2881.010578814546"/>
			<g transform="scale(8.571428571428571) translate(10, 10)">
				<defs id="SvgjsDefs5358"><linearGradient id="SvgjsLinearGradient5365"><stop id="SvgjsStop5366" stop-color="#51504f" offset="0"></stop><stop id="SvgjsStop5367" stop-color="#939598" offset="0.5"></stop><stop id="SvgjsStop5368" stop-color="#51504f" offset="1"></stop></linearGradient><linearGradient id="SvgjsLinearGradient5369"><stop id="SvgjsStop5370" stop-color="#51504f" offset="0"></stop><stop id="SvgjsStop5371" stop-color="#939598" offset="0.5"></stop><stop id="SvgjsStop5372" stop-color="#51504f" offset="1"></stop></linearGradient></defs><g id="SvgjsG5359" featureKey="symbolFeature-0" transform="matrix(3.309222962922278,0,0,3.309222962922278,9.433999291082785,-54.20566266859451)" fill="#545454"><path xmlns="http://www.w3.org/2000/svg" d="M77.3,54.3h-7.1v-2.8c0-1.9-1.5-3.4-3.4-3.4H54.9c-1.9,0-3.4,1.5-3.4,3.4v2.8H44c-2.6,0-4.8,2.2-4.8,4.8v19.3  c0,2.6,2.2,4.8,4.8,4.8h33.3c2.6,0,4.8-2.2,4.8-4.8V59.1C82.1,56.4,79.9,54.3,77.3,54.3z M53,51.5c0-1.1,0.9-2,2-2h11.8  c1.1,0,2,0.9,2,2v2.8h-1v-1.7c0-1.2-1-2.2-2.2-2.2h-9.2c-1.2,0-2.2,1-2.2,2.2v1.7H53V51.5z M66.3,54.3H55.5v-1.7  c0-0.4,0.4-0.8,0.8-0.8h9.2c0.4,0,0.8,0.4,0.8,0.8V54.3z M80.6,78.4c0,1.9-1.5,3.4-3.4,3.4H44c-1.9,0-3.4-1.5-3.4-3.4V59.1  c0-1.9,1.5-3.4,3.4-3.4h8.2c0,0,0.1,0,0.1,0h17.2c0,0,0.1,0,0.1,0h7.7c1.9,0,3.4,1.5,3.4,3.4V78.4z M46.9,57.2v22.4  c0,0.4-0.3,0.7-0.7,0.7s-0.7-0.3-0.7-0.7V57.2c0-0.4,0.3-0.7,0.7-0.7S46.9,56.8,46.9,57.2z M75.4,57.2v22.4c0,0.4-0.3,0.7-0.7,0.7  c-0.4,0-0.7-0.3-0.7-0.7V57.2c0-0.4,0.3-0.7,0.7-0.7C75.1,56.5,75.4,56.8,75.4,57.2z M70.8,59.6h-9.3c-0.4,0-0.7,0.3-0.7,0.7v4.9  c0,0.4,0.3,0.7,0.7,0.7h9.3c0.4,0,0.7-0.3,0.7-0.7v-4.9C71.5,59.9,71.2,59.6,70.8,59.6z M70.1,64.4h-2.4l0.8-0.7  c0.3-0.3,0.3-0.7,0-1c-0.3-0.3-0.7-0.3-1,0l-1.7,1.7c0,0,0,0,0,0h-0.8l1.5-1.5c0.3-0.3,0.3-0.7,0-1c-0.3-0.3-0.7-0.3-1,0l-2.5,2.5  c0,0,0,0,0,0h-0.6V61h7.9V64.4z M70.8,66.7H67c-0.4,0-0.7,0.3-0.7,0.7v3.7c0,0.4,0.3,0.7,0.7,0.7h3.8c0.4,0,0.7-0.3,0.7-0.7v-3.7  C71.5,67.1,71.2,66.7,70.8,66.7z M70.1,70.4h-2.4v-2.3h2.4V70.4z M64,66.7h-2.5c-0.4,0-0.7,0.3-0.7,0.7v2.4c0,0.4,0.3,0.7,0.7,0.7  H64c0.4,0,0.7-0.3,0.7-0.7v-2.4C64.7,67.1,64.4,66.7,64,66.7z M63.3,69.2h-1.1v-1h1.1V69.2z M70.8,72.4h-2.5c-0.4,0-0.7,0.3-0.7,0.7  v2.4c0,0.4,0.3,0.7,0.7,0.7h2.5c0.4,0,0.7-0.3,0.7-0.7v-2.4C71.5,72.7,71.2,72.4,70.8,72.4z M70.1,74.8H69v-1h1.1V74.8z M36.1,79.5  H22.3c-1.6,0-3-1.3-3-3v-26c0-1.6,1.3-3,3-3h18.4c1.6,0,3,1.2,3,2.8v1.4c0,0.4,0.3,0.7,0.7,0.7c0.4,0,0.7-0.3,0.7-0.7v-1.4  c0-2.3-2-4.2-4.4-4.2h-2.7V29.6c0-1.2-1-2.2-2.2-2.2h-8.9c-1.2,0-2.2,1-2.2,2.2l0,16.6h-2.3c-2.4,0-4.4,2-4.4,4.4v26  c0,2.2,1.7,4,3.8,4.3c0.1,1.5,1.4,2.7,2.9,2.7c1.5,0,2.8-1.2,2.9-2.7h8.6c0.4,0,0.7-0.3,0.7-0.7C36.9,79.9,36.5,79.5,36.1,79.5z   M34.6,32.7v13.5H28V32.7H34.6z M36.1,46.2V32.7h0.4v13.5H36.1z M26.8,28.8h8.9c0.4,0,0.7,0.4,0.7,0.8v1.6H26.1l0-1.6  C26.1,29.1,26.4,28.8,26.8,28.8z M26.1,32.7h0.4v13.5h-0.4L26.1,32.7z M24.6,82.2c-0.7,0-1.3-0.5-1.4-1.2h2.9  C26,81.7,25.4,82.2,24.6,82.2z M37.9,53.7c0,0.4-0.3,0.7-0.7,0.7H23.6c-0.4,0-0.7-0.3-0.7-0.7c0-0.4,0.3-0.7,0.7-0.7h13.6  C37.6,53,37.9,53.3,37.9,53.7z M23.6,75c-0.4,0-0.7-0.3-0.7-0.7c0-0.4,0.3-0.7,0.7-0.7h12.1c0.4,0,0.7,0.3,0.7,0.7  c0,0.4-0.3,0.7-0.7,0.7H23.6z M44.9,43.3c0-0.4,0.3-0.7,0.7-0.7h4.5c6.8,0,13.2-3,17.5-8.3c0.3-0.3,0.7-0.4,1-0.1  c0.3,0.3,0.4,0.7,0.1,1C64.2,40.8,57.4,44,50.2,44h-4.5C45.3,44,44.9,43.7,44.9,43.3z M78.8,24.4c0.9,2,1.8,3.9,2.7,5.8  c0.4,0.8,0.3,1.6-0.2,2.5c-0.2,0.3-0.4,0.4-0.7,0.5c0,0-0.1,0-0.1,0c-0.2,0-0.5-0.1-0.7-0.3c-0.1-0.1-0.1-0.1-0.2-0.2  c-0.7-0.9-1.4-1.7-2-2.6c-0.6-0.8-1.2-1.5-1.8-2.3c-0.2-0.3-0.2-0.8,0.1-1c0.3-0.2,0.8-0.2,1,0.1c0.6,0.8,1.2,1.6,1.8,2.3  c0.5,0.7,1.1,1.4,1.7,2.2c0-0.2,0-0.4-0.1-0.5c-0.9-1.9-1.8-3.8-2.7-5.8c-0.2-0.4,0-0.8,0.4-1C78.2,23.9,78.7,24.1,78.8,24.4z   M64.9,23.3c-0.2-0.3-0.2-0.7-0.1-1c0.1-0.5,0.6-1.2,2.2-1.2c1.7,0.1,5,0,6.6,0c0.3,0,0.5,0,0.6,0c0.5-0.7,1.9-2.5,2.3-3  c0.8-1.1,2.3-2.2,3.5-1.5c1,0.6,1,1.8,0,3.6c-0.5,0.9-5.8,8.4-7.1,10.2c0,0.1,0.1,0.4,0.2,0.7c0.1,0.4,0.3,1,0.3,1.2  c0.1,0.4,0.3,1.3-0.3,1.9c-0.2,0.2-0.5,0.4-0.9,0.4c-0.2,0-0.5-0.1-0.7-0.2l-2.3-2.1c-0.3-0.3-0.3-0.7,0-1c0.3-0.3,0.7-0.3,1,0  l1.9,1.7c0-0.1,0-0.1,0-0.2c-0.1-0.2-0.2-0.7-0.3-1.2c-0.2-0.6-0.2-0.8-0.2-0.9c0-0.2-0.1-0.6,0.2-0.9c1.7-2.3,6.7-9.4,7.1-10.2  c0.7-1.2,0.6-1.6,0.5-1.7c-0.2-0.1-1,0.3-1.6,1.1c-0.5,0.7-2.6,3.3-2.6,3.3c-0.2,0.2-0.4,0.3-0.7,0.3c0,0-0.4,0-0.9,0  c-1.6,0-5,0-6.6,0c-0.2,0-0.4,0-0.5,0.1c1.3,0.3,4.6,1.2,6.5,1.7c0.4,0.1,0.6,0.5,0.5,0.9c-0.1,0.4-0.5,0.6-0.9,0.5  c-2.2-0.6-6.5-1.7-6.9-1.8C65.4,23.8,65.1,23.6,64.9,23.3z"></path></g><g id="SvgjsG5360" featureKey="nameFeature-0" transform="matrix(1.128217033826443,0,0,1.128217033826443,-0.27077236786576453,228.19062591609594)" fill="url(#SvgjsLinearGradient5365)"><path d="M12.52 17.28 l0 20.12 c0 1.52 -0.8 2.72 -2.52 2.72 s-2.52 -1.2 -2.52 -2.72 l0 -20.12 l-4.64 0 c-1.44 0 -2.6 -0.76 -2.6 -2.4 s1.16 -2.4 2.6 -2.4 l14.32 0 c1.44 0 2.6 0.76 2.6 2.4 s-1.16 2.4 -2.6 2.4 l-4.64 0 z M26.116 25.16 l0 12.28 c0 1.48 -0.8 2.68 -2.52 2.68 s-2.52 -1.2 -2.52 -2.68 l0 -22.28 c0 -1.48 0.8 -2.68 2.52 -2.68 l8.56 0 c6.08 0 8.4 1.76 8.4 5.68 c0 2.72 -1.52 4.88 -3.64 6.28 c3.44 3.12 5.28 8.24 5.28 12.08 c0 1.84 -0.36 3.6 -2.36 3.6 c-2.2 0 -2.64 -1.48 -2.68 -3.36 c-0.12 -6.04 -3.4 -11.6 -11.04 -11.6 z M26.116 17.04 l0 3.8 c2.2 0 3.24 0.24 4.24 0.44 l2.44 0.64 c1.08 0 2.72 -1.8 2.72 -3 c0 -1.28 -1 -1.88 -2.72 -1.88 l-6.68 0 z M43.712 27.560000000000002 l1.16 -12.4 c0.12 -1.36 0.76 -2.8 2.4 -2.8 c1.76 0 2.4 1.36 2.4 2.32 c0 5.28 -1.24 10.48 -1.24 15.76 c0 3.12 2.24 5.24 5.32 5.24 s5.32 -2.12 5.32 -5.24 c0 -5.28 -1.24 -10.48 -1.24 -15.76 c0 -0.96 0.64 -2.32 2.4 -2.32 c1.64 0 2.28 1.44 2.4 2.8 l1.16 12.4 c0.08 1.04 0.08 2.24 0.08 3.36 c0 5.56 -4.4 9.32 -10.12 9.32 s-10.12 -3.76 -10.12 -9.32 c0 -1.12 0 -2.32 0.08 -3.36 z M67.428 36.56 l0 -21.48 c0 -1.52 0.84 -2.72 2.52 -2.72 s2.52 1.2 2.52 2.72 l0 20.12 l7.72 0 c1.44 0 2.6 0.76 2.6 2.4 s-1.16 2.4 -2.6 2.4 l-9.28 0 c-2.64 0 -3.48 -1.36 -3.48 -3.44 z M94.70400000000001 27.119999999999997 l0 10.04 c0 1.68 -0.88 2.96 -2.72 2.96 s-2.72 -1.28 -2.72 -2.96 l0 -10.04 c-3.52 -2.76 -7.72 -8.64 -7.72 -12.4 c0 -1.4 1.16 -2.36 2.36 -2.36 c1.04 0 2.36 0.48 2.92 2.64 c0.72 2.72 2.76 6.52 5.16 8.28 c2.4 -1.76 4.44 -5.56 5.16 -8.28 c0.56 -2.16 1.88 -2.64 2.92 -2.64 c1.2 0 2.36 0.96 2.36 2.36 c0 3.76 -4.2 9.64 -7.72 12.4 z M124.61600000000001 34.68 c3.28 -5.76 4.88 -11.72 5.52 -18.32 c0.24 -2.44 0.4 -4 2.92 -4 c1.4 0 2.52 0.8 2.52 2.88 c0 5.48 -3.28 16.04 -6.12 20.84 c-1.36 2.28 -2.32 4.16 -4.84 4.16 s-3.48 -1.88 -4.84 -4.16 c-2.84 -4.8 -6.12 -15.36 -6.12 -20.84 c0 -2.08 1.12 -2.88 2.52 -2.88 c2.52 0 2.68 1.56 2.92 4 c0.64 6.6 2.24 12.56 5.52 18.32 z M144.49200000000002 28.32 l-1.04 0 c-1.08 2.92 -1.68 6.76 -1.96 9.44 c-0.16 1.48 -1 2.36 -2.44 2.36 c-2.16 0 -2.6 -1.28 -2.6 -3.2 c0 -1.24 0.68 -8.44 5.92 -18.32 c2.28 -4.32 3.56 -6.36 6.36 -6.36 c2.32 0 3.68 2.04 5.96 6.36 c5.24 9.88 6.32 17.08 6.32 18.32 c0 2.08 -1 3.2 -2.4 3.2 c-2 0 -2.48 -1.16 -2.88 -3.32 c-1.04 -5.76 -6.76 -8.48 -11.24 -8.48 z M144.65200000000002 24.32 l0.52 0 c1.96 0 5.4 0.56 8.04 2.72 l0.08 -0.08 c-1.2 -3.44 -2.72 -6.8 -4.68 -9.92 c-1.6 2.4 -2.92 4.8 -3.96 7.28 z M181.288 17.28 l-7.44 0 c-4.32 0 -5.8 2.76 -5.8 6.88 c0 5.12 4.44 11.04 12.88 11.04 c2.28 0 3.24 1.04 3.24 2.4 c0 1.92 -1.48 2.64 -4.24 2.64 c-7.84 0 -17.56 -5.28 -17.56 -16.4 c0 -6.88 4.28 -11.36 10.04 -11.36 l8.88 0 c1.44 0 2.6 0.76 2.6 2.4 s-1.16 2.4 -2.6 2.4 z M192.72400000000002 28.32 l-1.04 0 c-1.08 2.92 -1.68 6.76 -1.96 9.44 c-0.16 1.48 -1 2.36 -2.44 2.36 c-2.16 0 -2.6 -1.28 -2.6 -3.2 c0 -1.24 0.68 -8.44 5.92 -18.32 c2.28 -4.32 3.56 -6.36 6.36 -6.36 c2.32 0 3.68 2.04 5.96 6.36 c5.24 9.88 6.32 17.08 6.32 18.32 c0 2.08 -1 3.2 -2.4 3.2 c-2 0 -2.48 -1.16 -2.88 -3.32 c-1.04 -5.76 -6.76 -8.48 -11.24 -8.48 z M192.88400000000001 24.32 l0.52 0 c1.96 0 5.4 0.56 8.04 2.72 l0.08 -0.08 c-1.2 -3.44 -2.72 -6.8 -4.68 -9.92 c-1.6 2.4 -2.92 4.8 -3.96 7.28 z M221.4 17.28 l0 20.12 c0 1.52 -0.8 2.72 -2.52 2.72 s-2.52 -1.2 -2.52 -2.72 l0 -20.12 l-4.64 0 c-1.44 0 -2.6 -0.76 -2.6 -2.4 s1.16 -2.4 2.6 -2.4 l14.32 0 c1.44 0 2.6 0.76 2.6 2.4 s-1.16 2.4 -2.6 2.4 l-4.64 0 z M235.51600000000002 15.079999999999998 l0 22.32 c0 1.52 -0.8 2.72 -2.52 2.72 s-2.52 -1.2 -2.52 -2.72 l0 -22.32 c0 -1.52 0.8 -2.72 2.52 -2.72 s2.52 1.2 2.52 2.72 z M264.552 26.240000000000002 c0 8.96 -6.16 14 -13 14 s-13 -5.04 -13 -14 s6.16 -14 13 -14 s13 5.04 13 14 z M258.872 26.240000000000002 c0 -5.28 -2.96 -9.44 -7.32 -9.44 s-7.32 4.16 -7.32 9.44 s2.96 9.44 7.32 9.44 s7.32 -4.16 7.32 -9.44 z M286.428 15.120000000000001 l0 22.24 c0 1.56 -0.8 2.76 -2.52 2.76 s-2.52 -1.2 -2.52 -2.76 l0 -12.68 c-3.28 -0.36 -6.64 -2.64 -9.28 -5.72 l0 18.4 c0 1.56 -0.8 2.76 -2.52 2.76 s-2.52 -1.2 -2.52 -2.76 l0 -22.24 c0.08 -1.56 1.04 -2.76 3.24 -2.76 c3.92 0 4.36 5.88 11.08 7.76 l0 -5 c0 -1.56 0.8 -2.76 2.52 -2.76 s2.52 1.2 2.52 2.76 z M305.50399999999996 17.28 l-9.24 0 c-1.24 0 -1.92 0.56 -1.92 1.6 c0 3.64 16.12 0.28 16.12 11.44 c0 5.04 -3.8 9.68 -10.64 9.68 l-8.6 0 c-1.44 0 -2.6 -0.76 -2.6 -2.4 s1.16 -2.4 2.6 -2.4 l6.56 0 c5.2 0 7.4 -1.28 7.4 -4.68 c0 -7.32 -16.12 -1.48 -16.12 -11.56 c0 -4.16 3.16 -6.48 8.16 -6.48 l8.28 0 c1.44 0 2.6 0.76 2.6 2.4 s-1.16 2.4 -2.6 2.4 z"></path></g><g id="SvgjsG5361" featureKey="sloganFeature-0" transform="matrix(2.30400970133955,0,0,2.30400970133955,82.09694779828492,269.8994630887498)" fill="url(#SvgjsLinearGradient5369)"><path d="M3.78 12.58 l0 6.14 c0 0.74 -0.4 1.34 -1.26 1.34 s-1.26 -0.6 -1.26 -1.34 l0 -11.14 c0 -0.74 0.4 -1.34 1.26 -1.34 l4.28 0 c3.04 0 4.2 0.88 4.2 2.84 c0 1.36 -0.76 2.44 -1.82 3.14 c1.72 1.56 2.64 4.12 2.64 6.04 c0 0.92 -0.18 1.8 -1.18 1.8 c-1.1 0 -1.32 -0.74 -1.34 -1.68 c-0.06 -3.02 -1.7 -5.8 -5.52 -5.8 z M3.78 8.52 l0 1.9 c1.1 0 1.62 0.12 2.12 0.22 l1.22 0.32 c0.54 0 1.36 -0.9 1.36 -1.5 c0 -0.64 -0.5 -0.94 -1.36 -0.94 l-3.34 0 z M16.240000000000002 8.52 l0 1.72 l4.8 0 c0.68 0 1.22 0.36 1.22 1.14 s-0.54 1.14 -1.22 1.14 l-4.8 0 l0 5.2 l5 0 c0.68 0 1.22 0.36 1.22 1.14 s-0.54 1.14 -1.22 1.14 l-5.9 0 c-1.32 0 -1.74 -0.68 -1.74 -1.72 l0 -10.68 c0 -0.76 0.42 -1.36 1.1 -1.36 l6.54 0 c0.68 0 1.22 0.36 1.22 1.14 s-0.54 1.14 -1.22 1.14 l-5 0 z M34.28 7.5600000000000005 l0 11.12 c0 0.78 -0.4 1.38 -1.26 1.38 s-1.26 -0.6 -1.26 -1.38 l0 -6.34 c-1.64 -0.18 -3.32 -1.32 -4.64 -2.86 l0 9.2 c0 0.78 -0.4 1.38 -1.26 1.38 s-1.26 -0.6 -1.26 -1.38 l0 -11.12 c0.04 -0.78 0.52 -1.38 1.62 -1.38 c1.96 0 2.18 2.94 5.54 3.88 l0 -2.5 c0 -0.78 0.4 -1.38 1.26 -1.38 s1.26 0.6 1.26 1.38 z M41.82 8.64 l0 10.06 c0 0.76 -0.4 1.36 -1.26 1.36 s-1.26 -0.6 -1.26 -1.36 l0 -10.06 l-2.32 0 c-0.72 0 -1.3 -0.38 -1.3 -1.2 s0.58 -1.2 1.3 -1.2 l7.16 0 c0.72 0 1.3 0.38 1.3 1.2 s-0.58 1.2 -1.3 1.2 l-2.32 0 z M50.1 14.16 l-0.52 0 c-0.54 1.46 -0.84 3.38 -0.98 4.72 c-0.08 0.74 -0.5 1.18 -1.22 1.18 c-1.08 0 -1.3 -0.64 -1.3 -1.6 c0 -0.62 0.34 -4.22 2.96 -9.16 c1.14 -2.16 1.78 -3.18 3.18 -3.18 c1.16 0 1.84 1.02 2.98 3.18 c2.62 4.94 3.16 8.54 3.16 9.16 c0 1.04 -0.5 1.6 -1.2 1.6 c-1 0 -1.24 -0.58 -1.44 -1.66 c-0.52 -2.88 -3.38 -4.24 -5.62 -4.24 z M50.18 12.16 l0.26 0 c0.98 0 2.7 0.28 4.02 1.36 l0.04 -0.04 c-0.6 -1.72 -1.36 -3.4 -2.34 -4.96 c-0.8 1.2 -1.46 2.4 -1.98 3.64 z M60.34 18.28 l0 -10.74 c0 -0.76 0.42 -1.36 1.26 -1.36 s1.26 0.6 1.26 1.36 l0 10.06 l3.86 0 c0.72 0 1.3 0.38 1.3 1.2 s-0.58 1.2 -1.3 1.2 l-4.64 0 c-1.32 0 -1.74 -0.68 -1.74 -1.72 z M76.76 8.64 l-4.62 0 c-0.62 0 -0.96 0.28 -0.96 0.8 c0 1.82 8.06 0.14 8.06 5.72 c0 2.52 -1.9 4.84 -5.32 4.84 l-4.3 0 c-0.72 0 -1.3 -0.38 -1.3 -1.2 s0.58 -1.2 1.3 -1.2 l3.28 0 c2.6 0 3.7 -0.64 3.7 -2.34 c0 -3.66 -8.06 -0.74 -8.06 -5.78 c0 -2.08 1.58 -3.24 4.08 -3.24 l4.14 0 c0.72 0 1.3 0.38 1.3 1.2 s-0.58 1.2 -1.3 1.2 z"></path></g>
			</g>
		</svg>
	